DataType=double
version=3
OpenSimVersion=4.5
endheader
time	ground_force_2_vx	ground_force_2_vy	ground_force_2_vz	ground_force_2_px	ground_force_2_py	ground_force_2_pz	ground_moment_2_mx	ground_moment_2_my	ground_moment_2_mz	ground_force_1_vx	ground_force_1_vy	ground_force_1_vz	ground_force_1_px	ground_force_1_py	ground_force_1_pz	ground_moment_1_mx	ground_moment_1_my	ground_moment_1_mz
2.235	-1.013139059576543	13.96813565282304	4.246408580873126	1.097240745180018	0.01038340430110678	0.5830337289861316	0	-0.05575313626368089	0	112.8617264336282	665.9816521377006	35.04862913461749	0.5791732429455387	0.01038340430110678	0.4195867705718294	0	-0.6363238754799333	0
2.24	-2.030035489437507	48.69039687332128	7.467954316662325	1.0814432877784	0.01038340430110678	0.5794558755986957	0	-0.09245020299093906	0	114.7969506825103	651.2236221162174	34.00754631613984	0.5744632565682877	0.01038340430110678	0.4196603525512381	0	-0.5965400668159085	0
2.245	-3.529879672657406	84.97267373013631	10.56958637951527	1.065900484328999	0.01038340430110678	0.5759897398193335	0	-0.1322769274545403	0	116.3861181931531	634.9558222682931	32.84260626556149	0.5695845048156331	0.01038340430110678	0.4197164281480881	0	-0.5526914239676443	0
2.25	-5.579982792575022	122.6110588622146	13.48992923693546	1.050937547018939	0.01038340430110678	0.5727165996756269	0	-0.1755337718594424	0	117.5240388739104	617.1202546000168	31.5516479464889	0.5645753169314367	0.01038340430110678	0.4197507877935377	0	-0.504146814034632	0
2.255	-8.23339333008138	161.3542250220408	16.15045362924865	1.036790011857123	0.01038340430110678	0.569699717215038	0	-0.2223988884202938	0	118.1166279018151	597.6746937995815	30.1332799578588	0.5594715419049603	0.01038340430110678	0.4197589798678586	0	-0.4510460499518797	0
2.26	-11.52273755418569	200.9017884131569	18.4553374134627	1.023611721658384	0.01038340430110678	0.5669840323479977	0	-0.2729587802634522	0	118.0806154958532	576.6015569722175	28.58628883638639	0.5543057241997026	0.01038340430110678	0.4197364613246101	0	-0.3943147562068646	0
2.265	-15.45544055006955	240.9146067734516	20.29685143971801	1.011489892617292	0.01038340430110678	0.5645977823862987	0	-0.3272755864136074	0	117.3430368081018	553.9160953580287	26.91044384038059	0.5491067534590565	0.01038340430110678	0.4196788535517705	0	-0.3355119429058065	0
2.27	-20.01138458643092	281.0327807099912	21.56553357106228	1.000458565895889	0.01038340430110678	0.5625543296363765	0	-0.385440366873083	0	115.8428534348558	529.6727074122157	25.10858077876391	0.5438999699597684	0.01038340430110678	0.4195822964774083	0	-0.2765765123327796	0
2.275	-25.1434484199255	320.8968310794066	22.16286112847843	0.9905104862948235	0.01038340430110678	0.5608542174513776	0	-0.4475967993687223	0	113.5346304785321	503.9687895029296	23.18878081977717	0.5387076639869299	0.01038340430110678	0.4194438660583667	0	-0.2195342124532788	0
2.28	-30.78062356293408	360.1696108691961	22.0138227972991	0.9816076207326563	0.01038340430110678	0.5594874246521193	0	-0.5139512018190565	0	110.3931924946789	476.9460486957923	21.16563519540479	0.5335498763591446	0.01038340430110678	0.4192619800376718	0	-0.166223234710696	0
2.285	-36.83288330057226	398.5558531773955	21.07689700289908	0.9736902491321957	0.01038340430110678	0.5584356212334791	0	-0.5847812994426809	0	106.4178283508187	448.7891168265508	19.06029948223233	0.5284454304512892	0.01038340430110678	0.4190367308835273	0	-0.1180856257260762	0
2.29	-43.19687499170919	435.8151246241927	19.34941755115532	0.9666844422077291	0.01038340430110678	0.5576743360190149	0	-0.660440960574478	0	101.634752753818	419.7208499521055	16.89962510242331	0.5234131970020182	0.01038340430110678	0.4187701480170623	0	-0.07605649845982965	0
2.295	-49.76169845523135	471.7663037711712	16.8676277776274	0.9605079689085957	0.01038340430110678	0.5571749149054581	0	-0.7413531164769974	0	96.09712380905657	389.9938981291283	14.7147957719126	0.5184736288786489	0.01038340430110678	0.4184663969627131	0	-0.04055905339277366	0
2.3	-56.41422442904561	506.284569819986	13.70215111645802	0.9550748411378883	0.01038340430110678	0.5569061403660537	0	-0.8279858266505379	0	89.88273120740762	359.8794299482295	12.53974489719	0.5136505425211546	0.01038340430110678	0.4181318052588456	0	-0.01158061093187357	0
2.305	-63.04354723857251	539.2927335722723	9.950421405248271	0.9502986941578808	0.01038340430110678	0.556835568708533	0	-0.920813248689529	0	83.09017513764263	329.6552378752395	10.40946963190536	0.5089729899885858	0.01038340430110678	0.4177744963910176	0	0.01121534503007204	0
2.31	-69.54441478393478	570.7491598013506	5.727874274146966	0.9460952143783519	0.01038340430110678	0.5569307002124746	0	-1.020267002587146	0	75.83481186703739	299.5959895167207	8.358371796249552	0.5044768478843223	0.01038340430110678	0.4174035716774221	0	0.02837805498755297	0
2.315	-75.81967128371711	600.6345564484118	1.159380470458604	0.942383815432029	0.01038340430110678	0.5571599475507798	0	-1.126678554534433	0	68.24572177747615	269.9680388864833	6.418934805729206	0.5002055438305747	0.01038340430110678	0.417028145784216	0	0.04057871603281205	0
2.32	-81.78176536403811	628.9389379065119	-3.628287194455885	0.9390886831294279	0.01038340430110678	0.557493330838002	0	-1.240211330394534	0	60.46397833194981	241.0286549602501	4.620981701240627	0.4962095968861603	0.01038340430110678	0.4166566406956377	0	0.04854797173903636	0
2.325	-87.35351566522218	655.6497015826086	-8.512672822444653	0.936139333276321	0.01038340430110678	0.5579029733837625	0	-1.360790872597255	0	52.64118733333196	213.0259697736221	2.991308951466195	0.4925452978891618	0.01038340430110678	0.4162964534022048	0	0.0530374371441763	0
2.33	-92.46856605140937	680.7423582689712	-13.38046644492207	0.9334709291987872	0.01038340430110678	0.5583635373864702	0	-1.488048841140327	0	44.93687171638928	186.1960028211044	1.553181730508449	0.4892730845766951	0.01038340430110678	0.415953860217128	0	0.05478414902950879	0
2.335	-97.0718848955118	704.175235608436	-18.1309703743299	0.9310245682174778	0.01038340430110678	0.5588526526228245	0	-1.621292852389259	0	37.51326973643811	160.7565705622837	0.3250988031057496	0.486455835440155	0.01038340430110678	0.4156339654658721	0	0.05444907673299881	0
2.34	-101.1203321287683	725.8882881202238	-22.67830850291085	0.9287475951700261	0.01038340430110678	0.5593513147085918	0	-1.759506106478284	0	30.52590823460978	136.9001830595088	-0.6817762809451544	0.4841570120955211	0.01038340430110678	0.4153404866418747	0	0.05255383507473421	0
2.345	-104.5831373281201	745.8053444868204	-26.95256499427936	0.9265939023742222	0.01038340430110678	0.5598441835212937	0	-1.901369943315582	0	24.10941610658882	114.7874194736867	-1.466992558649046	0.4824386128693225	0.01038340430110678	0.4150752422092692	0	0.04949142015022767	0
2.35	-107.4421573549722	763.8389104027444	-30.90012995279374	0.9245241481927752	0.01038340430110678	0.5603196685263963	0	-2.045292552268316	0	18.36213889622173	94.54117918342627	-2.042322769996385	0.4813589047411651	0.01038340430110678	0.4148375367448493	0	0.04559522895430457	0
2.355	-109.6918652624569	779.8966887971131	-34.483530025305	0.9225058500533283	0.01038340430110678	0.5607697290008938	0	-2.189431770746891	0	13.33729265120158	76.24273203756036	-2.429344706456781	0.4809695166378956	0.01038340430110678	0.4146241102867221	0	0.04117096143723031	0
2.36	-111.3390753136021	793.8892218544249	-37.68089002048678	0.9205133625618646	0.01038340430110678	0.5611894313822434	0	-2.331716959698404	0	9.045225964949845	59.93042568500198	-2.654782930364444	0.4813113674136869	0.01038340430110678	0.4144304090095902	0	0.0364834696214299	0
2.365	-112.4023566911804	805.7380627301316	-40.48502417897583	0.9185277472267956	0.01038340430110678	0.561576373182459	0	-2.469884197729355	0	5.462954896011983	45.6004000130385	-2.74661698302274	0.4824095272910196	0.01038340430110678	0.4142533685668092	0	0.03174815034760725	0
2.37	-112.9109889141348	815.383455232429	-42.90210573872416	0.9165364695725589	0.01038340430110678	0.561930070808734	0	-2.60153332454669	0	2.544655466551916	33.20869259354561	-2.731827722697926	0.4842676174876418	0.01038340430110678	0.4140950093239679	0	0.02713449803020651	0
2.375	-112.9033420251882	822.7903934969056	-44.94988599522893	0.9145328498095641	0.01038340430110678	0.5622513739767587	0	-2.724207510328365	0	0.2304153432068164	22.67499066453473	-2.635194221573162	0.4868647666413707	0.01038340430110678	0.4139644240009868	0	0.02277068734973264	0
2.38	-112.4247249090288	827.9524801480311	-46.65547271395221	0.9125152659974279	0.01038340430110678	0.5625419511585583	0	-2.835492047249263	0	-1.546922489853647	13.88781978944945	-2.478661493525802	0.4901606641592332	0.01038340430110678	0.4138751137108258	0	0.01874626981273764	0
2.385	-111.52488066576	830.8935342019261	-48.0527481159654	0.9104861568131737	0.01038340430110678	0.562803875420422	0	-2.933123573211563	0	-2.856667016365779	6.710838809012785	-2.281081047307193	0.4941071338376238	0.01038340430110678	0.413839247395223	0	0.01511565472012955	0
2.39	-110.2553620762126	831.6671178342067	-49.17959488733395	0.9084508763661853	0.01038340430110678	0.563039313524497	0	-3.015096724092324	0	-3.766850046720433	0.9903138463070036	-2.058223652226062	0.4986567075179029	0.01038340430110678	0.4138641674358107	0	0.01190524821740002	0
2.395	-108.6670329275732	830.3543121111577	-50.07514934476737	0.9064164623349118	0.01038340430110678	0.5632503023806772	0	-3.079756120255758	0	-4.342135447323879	-3.436901818983245	-1.822968097826589	0.5037649191885971	0.01038340430110678	0.4139524343963397	0	0.009121220929951157	0
2.4	-106.8079304909555	827.0602590104677	-50.77730150038161	0.9043903944995486	0.01038340430110678	0.5634385987728155	0	-3.125864346371792	0	-4.642547976783344	-6.736186511969038	-1.585569677529463	0.5093903084446858	0.01038340430110678	0.4141029392003843	0	0.006754821863080407	0
2.405	-104.7216815791825	821.9101501341379	-51.32062221252242	0.9023794373604682	0.01038340430110678	0.5636055956234653	0	-3.152640696211181	0	-4.722684131217463	-9.069443573724527	-1.3539533674216	0.5154943334731139	0.01038340430110678	0.414311856086333	0	0.00478614866593674	0
2.41	-102.4465865905914	815.0453925982022	-51.73483481332666	0.9003886669204832	0.01038340430110678	0.5637522970669135	0	-3.15977020362378	0	-4.631277447342537	-10.59083821852357	-1.134011335632671	0.5220412297791338	0.01038340430110678	0.414573436012748	0	0.003187370275541945	0
2.415	-100.0153823826947	806.6204974506975	-52.04388676930553	0.8984207537383264	0.01038340430110678	0.5638793392753977	0	-3.147383997415887	0	-4.411048521834725	-11.44377470419892	-0.9298944243186789	0.5289978431089463	0.01038340430110678	0.4148806471976555	0	0.001925433197840554	0
2.42	-97.45558466755975	796.8008689552428	-52.26561730031702	0.896475516720189	0.01038340430110678	0.5639870424404704	0	-3.116011543740781	0	-4.098777888101496	-11.75891780474836	-0.7442899129809568	0.536333457924862	0.01038340430110678	0.415225674837859	0	0.0009642837755173828	0
2.425	-94.79022349519045	785.7613355617364	-52.41195069903596	0.8945497110722486	0.01038340430110678	0.5640754810107729	0	-3.06650798044992	0	-3.725547431896168	-11.65307564817391	-0.578680099497678	0.5440196364484797	0.01038340430110678	0.415600295831882	0	0.000266647089794958	0
